<?xml version="1.0" standalone="no"?>
<!DOCTYPE svg PUBLIC "-//W3C//DTD SVG 20010904//EN"
 "http://www.w3.org/TR/2001/REC-SVG-20010904/DTD/svg10.dtd">
<svg version="1.0" xmlns="http://www.w3.org/2000/svg"
 width="75.000000pt" height="63.000000pt" viewBox="0 0 75.000000 63.000000"
 preserveAspectRatio="xMidYMid meet">

<g transform="translate(0.000000,63.000000) scale(0.100000,-0.100000)"
fill="#000000" stroke="none">
<path d="M383 603 c9 -2 23 -2 30 0 6 3 -1 5 -18 5 -16 0 -22 -2 -12 -5z"/>
<path d="M318 593 c7 -3 16 -2 19 1 4 3 -2 6 -13 5 -11 0 -14 -3 -6 -6z"/>
<path d="M250 570 c-19 -10 -51 -36 -70 -57 l-35 -38 40 36 c22 20 58 46 80
57 22 12 36 21 30 21 -5 0 -26 -8 -45 -19z"/>
<path d="M307 566 c-64 -24 -115 -64 -150 -116 -17 -27 -39 -50 -47 -50 -9 -1
-6 -5 7 -10 25 -10 47 -46 39 -65 -2 -7 2 -19 10 -25 19 -17 18 -74 -2 -91 -9
-7 -34 -13 -55 -14 -47 0 -52 -12 -7 -17 27 -3 36 -12 64 -63 30 -53 37 -60
66 -61 18 -1 59 -10 92 -19 109 -31 235 12 301 102 16 23 35 42 42 42 6 1 15
5 18 11 4 6 -1 7 -11 3 -12 -4 -25 3 -41 23 l-24 29 11 -29 c7 -20 7 -33 1
-39 -15 -15 -20 -7 -38 57 -13 45 -13 60 -4 69 10 9 18 6 37 -16 l24 -28 -6
31 c-5 23 -3 30 9 30 11 0 18 -13 23 -36 8 -41 24 -28 24 20 0 16 8 39 18 50
17 21 17 21 -4 4 -29 -25 -80 -23 -94 3 -7 11 -9 27 -6 35 7 19 32 18 40 -1 7
-18 26 -20 26 -2 0 7 -19 21 -42 32 -55 26 -66 58 -33 91 l24 24 -23 -6 c-15
-3 -40 3 -67 17 -55 28 -167 36 -222 15z m253 -69 c0 -6 -4 -26 -9 -44 -8 -28
-5 -36 26 -72 19 -22 32 -45 28 -51 -11 -18 -39 -10 -62 18 l-22 27 6 -37 c5
-33 3 -38 -15 -38 -16 0 -23 14 -42 83 -29 106 -28 101 -4 105 15 2 23 -4 28
-20 7 -22 8 -21 17 10 7 22 16 32 29 32 11 0 20 -6 20 -13z m-141 -46 c21 -21
41 -80 41 -120 0 -35 -28 -61 -65 -61 -40 0 -49 10 -70 82 -17 61 -12 87 23
107 26 16 50 13 71 -8z m-125 -65 c10 -21 21 -57 23 -80 6 -52 -19 -79 -69
-74 -26 2 -36 10 -50 38 -9 19 -20 54 -24 76 -8 54 20 87 69 82 26 -2 36 -10
51 -42z m253 -104 c6 -4 18 -29 25 -56 12 -44 11 -49 -7 -62 -32 -24 -55 -17
-71 21 -17 42 -18 77 -2 93 14 14 37 15 55 4z m-83 -38 c9 -24 -2 -30 -24 -16
-18 11 -20 9 -20 -16 0 -31 29 -81 30 -50 0 9 -5 18 -12 20 -17 6 0 28 23 28
10 0 19 -6 19 -12 0 -7 3 -22 6 -34 4 -16 -1 -24 -25 -34 -40 -16 -54 -5 -71
55 -10 36 -10 48 0 60 17 20 66 19 74 -1z m-93 -65 c32 -64 31 -82 -1 -61 -26
16 -27 15 -33 -8 -11 -41 -25 -18 -29 46 -2 51 0 68 12 75 8 4 16 9 17 9 2 0
17 -27 34 -61z m-87 4 c11 -69 8 -103 -10 -103 -9 0 -23 8 -30 18 -12 16 -13
15 -8 -4 4 -14 0 -23 -12 -28 -9 -3 -18 -5 -19 -4 -9 10 -55 109 -55 118 0 22
27 8 42 -22 l16 -33 -5 38 c-5 30 -3 37 11 37 9 0 21 -11 26 -25 12 -32 22
-32 14 -1 -6 25 1 46 15 46 5 0 11 -17 15 -37z m246 -83 c13 -25 2 -26 -16 -2
-12 15 -12 14 -8 -8 5 -25 5 -25 -12 -5 -14 17 -16 17 -11 3 7 -20 -9 -25 -16
-5 -3 7 -6 5 -6 -5 -1 -17 -9 -20 -58 -22 -10 -1 -21 -5 -25 -11 -5 -7 -8 -6
-8 1 0 23 28 44 80 58 72 19 68 19 80 -4z"/>
<path d="M365 418 c-7 -19 11 -95 25 -103 21 -13 28 6 18 47 -13 53 -34 80
-43 56z"/>
<path d="M220 374 c0 -37 23 -104 36 -104 17 0 18 31 3 83 -10 36 -39 53 -39
21z"/>
<path d="M515 228 c7 -34 21 -55 30 -47 2 3 0 22 -6 42 -13 46 -33 50 -24 5z"/>
<path d="M430 80 c0 -5 5 -10 10 -10 6 0 10 5 10 10 0 6 -4 10 -10 10 -5 0
-10 -4 -10 -10z"/>
<path d="M400 70 c0 -5 5 -10 10 -10 6 0 10 5 10 10 0 6 -4 10 -10 10 -5 0
-10 -4 -10 -10z"/>
<path d="M673 524 c21 -26 22 -40 0 -48 -10 -4 -20 -1 -25 9 -10 17 -28 20
-28 5 0 -6 12 -16 28 -22 15 -7 37 -21 50 -32 18 -16 22 -17 17 -4 -4 9 -13
19 -21 22 -12 5 -12 9 -2 26 11 17 9 23 -12 42 -20 19 -21 19 -7 2z"/>
<path d="M721 394 c0 -11 3 -14 6 -6 3 7 2 16 -1 19 -3 4 -6 -2 -5 -13z"/>
<path d="M25 370 c-3 -6 1 -7 9 -4 18 7 21 14 7 14 -6 0 -13 -4 -16 -10z"/>
<path d="M31 334 c0 -11 3 -14 6 -6 3 7 2 16 -1 19 -3 4 -6 -2 -5 -13z"/>
<path d="M84 334 c3 -9 6 -18 6 -20 0 -2 5 -4 10 -4 6 0 10 9 10 20 0 12 -7
20 -16 20 -11 0 -14 -5 -10 -16z"/>
<path d="M51 264 c0 -11 3 -14 6 -6 3 7 2 16 -1 19 -3 4 -6 -2 -5 -13z"/>
<path d="M108 274 c-8 -7 3 -44 13 -44 13 0 20 17 13 34 -6 16 -16 20 -26 10z"/>
<path d="M61 224 c0 -11 3 -14 6 -6 3 7 2 16 -1 19 -3 4 -6 -2 -5 -13z"/>
<path d="M681 224 c0 -11 3 -14 6 -6 3 7 2 16 -1 19 -3 4 -6 -2 -5 -13z"/>
</g>
</svg>
